# xmcd
#
# Track frame offsets:
#	150
#	21755
#	36548
#	54926
#	70506
#	90270
#	107960
#	126570
#	150518
#
# Disc length: 2317 seconds
#
# Revision: 0
# Processed by: cddbd v1.5.2PL0 Copyright (c) Steve Scherf et al.
# Submitted via: EasyCDDAExtractor 15.2.5.1
#
DISCID=6e090b09
DTITLE=witch - we intend to cause havoc! 4/4
DYEAR=1900
DGENRE=
TTITLE0=janet
TTITLE1=as days go by
TTITLE2=ntedelakumbi
TTITLE3=in flight
TTITLE4=nazingwa
TTITLE5=silver lady
TTITLE6=anyinamwana
TTITLE7=mama feel good
TTITLE8=the way i feel
EXTD=
EXTT0=
EXTT1=
EXTT2=
EXTT3=
EXTT4=
EXTT5=
EXTT6=
EXTT7=
EXTT8=
PLAYORDER=
